<svg xmlns="http://www.w3.org/2000/svg" xmlns:xlink="http://www.w3.org/1999/xlink" width="750" height="500" viewBox="0 0 750 500">
  <defs>
    <linearGradient id="linear-gradient" x1="0.339" y1="0.198" x2="0.735" y2="0.942" gradientUnits="objectBoundingBox">
      <stop offset="0" stop-color="#311445"/>
      <stop offset="0.115" stop-color="#3f1246"/>
      <stop offset="0.336" stop-color="#660e4b"/>
      <stop offset="0.639" stop-color="#a50852"/>
      <stop offset="1" stop-color="#f8005c"/>
    </linearGradient>
    <linearGradient id="linear-gradient-2" x1="0.352" y1="0.251" x2="0.758" y2="0.903" gradientUnits="objectBoundingBox">
      <stop offset="0" stop-color="#311445"/>
      <stop offset="0.077" stop-color="#3f1246"/>
      <stop offset="0.223" stop-color="#660e4b"/>
      <stop offset="0.425" stop-color="#a50852"/>
      <stop offset="0.665" stop-color="#f8005c"/>
      <stop offset="0.717" stop-color="#f8055c"/>
      <stop offset="0.788" stop-color="#f9165d"/>
      <stop offset="0.868" stop-color="#fb325f"/>
      <stop offset="0.955" stop-color="#fd5961"/>
      <stop offset="1" stop-color="#ff7063"/>
    </linearGradient>
    <linearGradient id="linear-gradient-3" x1="0.307" y1="0.191" x2="0.749" y2="0.888" xlink:href="#linear-gradient-2"/>
    <linearGradient id="linear-gradient-4" x1="0.284" y1="0.086" x2="0.587" y2="0.711" xlink:href="#linear-gradient"/>
    <linearGradient id="linear-gradient-5" x1="0.163" y1="-0.161" x2="0.812" y2="1.088" xlink:href="#linear-gradient-2"/>
    <linearGradient id="linear-gradient-6" x1="0.853" y1="1.003" x2="0.329" y2="0.256" xlink:href="#linear-gradient-2"/>
    <linearGradient id="linear-gradient-7" x1="0.899" y1="1.113" x2="0.373" y2="0.323" xlink:href="#linear-gradient-2"/>
    <linearGradient id="linear-gradient-8" x1="0.903" y1="1.286" x2="0.401" y2="0.307" xlink:href="#linear-gradient-2"/>
    <linearGradient id="linear-gradient-9" x1="0.911" y1="-0.371" x2="0.106" y2="1.451" xlink:href="#linear-gradient-2"/>
    <clipPath id="clip-Artboard_2">
      <rect width="750" height="500"/>
    </clipPath>
  </defs>
  <g id="Artboard_2" data-name="Artboard 2" clip-path="url(#clip-Artboard_2)">
    <rect width="750" height="500" fill="#fff"/>
    <g id="BACKGROUND_2" data-name="BACKGROUND 2" transform="translate(-530.47)">
      <g id="Group_45" data-name="Group 45">
        <g id="Group_38" data-name="Group 38">
          <rect id="Rectangle_1" data-name="Rectangle 1" width="750" height="500" transform="translate(530.47)" fill="url(#linear-gradient)"/>
          <g id="Group_37" data-name="Group 37">
            <g id="Group_102" data-name="Group 102">
              <g id="Group_5" data-name="Group 5">
                <g id="Group_1" data-name="Group 1">
                  <path id="Path_1" data-name="Path 1" d="M996.735,0s42.667,131-91.027,151.932C831.291,163.584,893.794,280.75,783,297c-150,22-137.6,164.277-252.53,96V0Z" fill="url(#linear-gradient-2)"/>
                  <path id="Path_2" data-name="Path 2" d="M530.47,325.966C619,359.838,702.1,319.31,753.5,252.333,812.6,175.333,755,116,875.4,123c92.377,5.371,94.152-85,78.109-123H530.47Z" fill="url(#linear-gradient-3)"/>
                  <path id="Path_3" data-name="Path 3" d="M530.47,277C556.2,238.667,573.683,246,647,265c78.164,20.256,116.876-82,91-130s14-89,92-50c77.159,38.58,96.506-53,68.473-85h-368Z" fill="url(#linear-gradient-4)"/>
                  <path id="Path_4" data-name="Path 4" d="M531,213S690.937,250.1,693,116C695-13.983,830,78,840.981,0H530.47Z" fill="url(#linear-gradient-5)"/>
                </g>
                <g id="Group_3" data-name="Group 3">
                  <g id="Group_2" data-name="Group 2">
                    <path id="Path_5" data-name="Path 5" d="M1044,0s-61,51,11,127,61,185-25,203-201-91.734-263,23c-41.863,77.47-157.06,119-236.53,49v98h750V0Z" fill="url(#linear-gradient-6)"/>
                    <path id="Path_6" data-name="Path 6" d="M1280.47,162.006s-142.354-61.631-150,119.994c-4.891,116.173-79.5,124.088-221.217,89.088C762.228,334.778,713,500,713,500h567.47Z" fill="url(#linear-gradient-7)"/>
                    <path id="Path_7" data-name="Path 7" d="M798.333,500s5.334-71.667,84.95-85C957.16,402.628,1067,484,1102,401s122.333-14.667,116-116c-4.226-67.61,62.47-69,62.47-69V500Z" fill="url(#linear-gradient-8)"/>
                  </g>
                  <path id="Path_8" data-name="Path 8" d="M1065,0s-43,64,35,93,149.94-42,180.47,52V0Z" fill="url(#linear-gradient-9)"/>
                </g>
                <g id="Group_4" data-name="Group 4" style="mix-blend-mode: color-dodge;isolation: isolate">
                  <path id="Path_9" data-name="Path 9" d="M939,0s34.58,154.254-114,104c-59.048-19.972-114.6-4.992-112,90,3.865,141.167-182.53,110-182.53,110V0Z" fill="#f50057" opacity="0.24" style="mix-blend-mode: overlay;isolation: isolate"/>
                  <path id="Path_10" data-name="Path 10" d="M614,500s46.342-136.144,151.463-88.616c129.7,58.641,95.229-51.8,191.625-53.384,68.565-1.125,92.245,91.2,177.912,76,84.878-15.064,5-186.259,145.47-157V500Z" fill="#f50057" opacity="0.24" style="mix-blend-mode: overlay;isolation: isolate"/>
                  <path id="Path_11" data-name="Path 11" d="M1056.313,0s-55.3,97.1,34.11,121.1S1280.47,65.6,1280.47,65.6V0Z" fill="#f50057" opacity="0.24" style="mix-blend-mode: overlay;isolation: isolate"/>
                </g>
              </g>
              <g id="Group_35" data-name="Group 35">
                <g id="Group_6" data-name="Group 6">
                  <path id="Path_12" data-name="Path 12" d="M960.49,177.744a1.76,1.76,0,1,1-1.761-1.761A1.76,1.76,0,0,1,960.49,177.744Z" fill="#fff"/>
                  <path id="Path_13" data-name="Path 13" d="M970.625,177.744a1.76,1.76,0,1,1-1.76-1.761A1.76,1.76,0,0,1,970.625,177.744Z" fill="#fff"/>
                  <path id="Path_14" data-name="Path 14" d="M980.761,177.744A1.761,1.761,0,1,1,979,175.983,1.761,1.761,0,0,1,980.761,177.744Z" fill="#fff"/>
                  <path id="Path_15" data-name="Path 15" d="M990.9,177.744a1.761,1.761,0,1,1-1.761-1.761A1.76,1.76,0,0,1,990.9,177.744Z" fill="#fff"/>
                  <path id="Path_16" data-name="Path 16" d="M1001.031,177.744a1.76,1.76,0,1,1-1.76-1.761A1.76,1.76,0,0,1,1001.031,177.744Z" fill="#fff"/>
                  <path id="Path_17" data-name="Path 17" d="M1011.167,177.744a1.761,1.761,0,1,1-1.761-1.761A1.761,1.761,0,0,1,1011.167,177.744Z" fill="#fff"/>
                  <path id="Path_18" data-name="Path 18" d="M1021.3,177.744a1.761,1.761,0,1,1-1.761-1.761A1.76,1.76,0,0,1,1021.3,177.744Z" fill="#fff"/>
                </g>
                <g id="Group_8" data-name="Group 8">
                  <path id="Path_20" data-name="Path 20" d="M681.811,452.048a1.761,1.761,0,1,1,1.76-1.761A1.76,1.76,0,0,1,681.811,452.048Z" fill="#fff"/>
                  <path id="Path_21" data-name="Path 21" d="M681.811,462.183a1.761,1.761,0,1,1,1.76-1.761A1.76,1.76,0,0,1,681.811,462.183Z" fill="#fff"/>
                  <path id="Path_22" data-name="Path 22" d="M681.811,472.318a1.76,1.76,0,1,1,1.76-1.76A1.76,1.76,0,0,1,681.811,472.318Z" fill="#fff"/>
                </g>
                <g id="Group_9" data-name="Group 9" transform="translate(-62)">
                  <path id="Path_23" data-name="Path 23" d="M775,294.627a1.761,1.761,0,1,1,1.761-1.761A1.761,1.761,0,0,1,775,294.627Z" fill="#fff"/>
                  <path id="Path_24" data-name="Path 24" d="M775,304.762A1.761,1.761,0,1,1,776.761,303,1.76,1.76,0,0,1,775,304.762Z" fill="#fff"/>
                  <path id="Path_25" data-name="Path 25" d="M775,314.9a1.76,1.76,0,1,1,1.761-1.761A1.76,1.76,0,0,1,775,314.9Z" fill="#fff"/>
                </g>
                <g id="Group_10" data-name="Group 10">
                  <circle id="Ellipse_3" data-name="Ellipse 3" cx="1.761" cy="1.761" r="1.761" transform="translate(1105.375 244.316)" fill="#fff"/>
                  <circle id="Ellipse_4" data-name="Ellipse 4" cx="1.761" cy="1.761" r="1.761" transform="translate(1095.239 244.316)" fill="#fff"/>
                  <circle id="Ellipse_5" data-name="Ellipse 5" cx="1.761" cy="1.761" r="1.761" transform="translate(1085.104 244.316)" fill="#fff"/>
                </g>
                <g id="Group_11" data-name="Group 11">
                  <circle id="Ellipse_6" data-name="Ellipse 6" cx="1.761" cy="1.761" r="1.761" transform="translate(826.478 103.17)" fill="#fff"/>
                  <circle id="Ellipse_7" data-name="Ellipse 7" cx="1.761" cy="1.761" r="1.761" transform="translate(816.343 103.17)" fill="#fff"/>
                  <circle id="Ellipse_8" data-name="Ellipse 8" cx="1.761" cy="1.761" r="1.761" transform="translate(806.208 103.17)" fill="#fff"/>
                </g>
                <g id="Group_12" data-name="Group 12">
                  <circle id="Ellipse_9" data-name="Ellipse 9" cx="1.761" cy="1.761" r="1.761" transform="translate(1264.173 445.458)" fill="#fff"/>
                  <circle id="Ellipse_10" data-name="Ellipse 10" cx="1.761" cy="1.761" r="1.761" transform="translate(1264.173 455.593)" fill="#fff"/>
                  <circle id="Ellipse_11" data-name="Ellipse 11" cx="1.761" cy="1.761" r="1.761" transform="translate(1264.173 465.728)" fill="#fff"/>
                </g>
                <g id="Group_13" data-name="Group 13">
                  <circle id="Ellipse_12" data-name="Ellipse 12" cx="1.761" cy="1.761" r="1.761" transform="translate(543.245 134.577)" fill="#fff"/>
                  <circle id="Ellipse_13" data-name="Ellipse 13" cx="1.761" cy="1.761" r="1.761" transform="translate(543.245 144.712)" fill="#fff"/>
                  <path id="Path_26" data-name="Path 26" d="M545.006,158.369a1.76,1.76,0,1,1,1.761-1.761A1.761,1.761,0,0,1,545.006,158.369Z" fill="#fff"/>
                </g>
                <g id="Group_14" data-name="Group 14">
                  <circle id="Ellipse_14" data-name="Ellipse 14" cx="1.761" cy="1.761" r="1.761" transform="translate(1262.412 168.555)" fill="#fff"/>
                  <path id="Path_27" data-name="Path 27" d="M1252.277,170.316a1.76,1.76,0,1,1,1.761,1.761A1.761,1.761,0,0,1,1252.277,170.316Z" fill="#fff"/>
                  <path id="Path_28" data-name="Path 28" d="M1242.142,170.316a1.76,1.76,0,1,1,1.76,1.761A1.761,1.761,0,0,1,1242.142,170.316Z" fill="#fff"/>
                </g>
                <g id="Group_15" data-name="Group 15">
                  <path id="Path_29" data-name="Path 29" d="M565.277,359.838a1.76,1.76,0,1,1,1.761,1.761A1.76,1.76,0,0,1,565.277,359.838Z" fill="#fff"/>
                  <path id="Path_30" data-name="Path 30" d="M555.142,359.838a1.76,1.76,0,1,1,1.76,1.761A1.76,1.76,0,0,1,555.142,359.838Z" fill="#fff"/>
                  <circle id="Ellipse_15" data-name="Ellipse 15" cx="1.761" cy="1.761" r="1.761" transform="translate(545.006 358.077)" fill="#fff"/>
                </g>
                <g id="Group_18" data-name="Group 18">
                  <g id="Group_17" data-name="Group 17" transform="translate(0 44)">
                    <circle id="Ellipse_22" data-name="Ellipse 22" cx="1.761" cy="1.761" r="1.761" transform="translate(908.428 366.191)" fill="#fff"/>
                    <path id="Path_32" data-name="Path 32" d="M922.085,367.952a1.76,1.76,0,1,1-1.761-1.761A1.761,1.761,0,0,1,922.085,367.952Z" fill="#fff"/>
                    <path id="Path_33" data-name="Path 33" d="M932.22,367.952a1.76,1.76,0,1,1-1.76-1.761A1.761,1.761,0,0,1,932.22,367.952Z" fill="#fff"/>
                    <circle id="Ellipse_23" data-name="Ellipse 23" cx="1.761" cy="1.761" r="1.761" transform="translate(938.834 366.191)" fill="#fff"/>
                    <circle id="Ellipse_24" data-name="Ellipse 24" cx="1.761" cy="1.761" r="1.761" transform="translate(948.969 366.191)" fill="#fff"/>
                    <circle id="Ellipse_25" data-name="Ellipse 25" cx="1.761" cy="1.761" r="1.761" transform="translate(959.105 366.191)" fill="#fff"/>
                    <circle id="Ellipse_26" data-name="Ellipse 26" cx="1.761" cy="1.761" r="1.761" transform="translate(969.24 366.191)" fill="#fff"/>
                  </g>
                </g>
                <g id="Group_34" data-name="Group 34">
                  <g id="Group_27" data-name="Group 27">
                    <circle id="Ellipse_55" data-name="Ellipse 55" cx="1.761" cy="1.761" r="1.761" transform="translate(1117.233 391.871)" fill="#fff"/>
                    <path id="Path_55" data-name="Path 55" d="M1130.89,393.631a1.76,1.76,0,1,1-1.761-1.76A1.76,1.76,0,0,1,1130.89,393.631Z" fill="#fff"/>
                    <path id="Path_56" data-name="Path 56" d="M1141.025,393.631a1.76,1.76,0,1,1-1.761-1.76A1.76,1.76,0,0,1,1141.025,393.631Z" fill="#fff"/>
                    <circle id="Ellipse_56" data-name="Ellipse 56" cx="1.761" cy="1.761" r="1.761" transform="translate(1147.639 391.871)" fill="#fff"/>
                    <circle id="Ellipse_57" data-name="Ellipse 57" cx="1.761" cy="1.761" r="1.761" transform="translate(1157.774 391.871)" fill="#fff"/>
                    <circle id="Ellipse_58" data-name="Ellipse 58" cx="1.761" cy="1.761" r="1.761" transform="translate(1167.91 391.871)" fill="#fff"/>
                    <circle id="Ellipse_59" data-name="Ellipse 59" cx="1.761" cy="1.761" r="1.761" transform="translate(1178.045 391.871)" fill="#fff"/>
                  </g>
                  <g id="Group_28" data-name="Group 28">
                    <circle id="Ellipse_60" data-name="Ellipse 60" cx="1.761" cy="1.761" r="1.761" transform="translate(1117.233 403.384)" fill="#fff"/>
                    <path id="Path_57" data-name="Path 57" d="M1130.89,405.145a1.76,1.76,0,1,1-1.761-1.761A1.761,1.761,0,0,1,1130.89,405.145Z" fill="#fff"/>
                    <path id="Path_58" data-name="Path 58" d="M1141.025,405.145a1.76,1.76,0,1,1-1.761-1.761A1.761,1.761,0,0,1,1141.025,405.145Z" fill="#fff"/>
                    <circle id="Ellipse_61" data-name="Ellipse 61" cx="1.761" cy="1.761" r="1.761" transform="translate(1147.639 403.384)" fill="#fff"/>
                    <circle id="Ellipse_62" data-name="Ellipse 62" cx="1.761" cy="1.761" r="1.761" transform="translate(1157.774 403.384)" fill="#fff"/>
                    <circle id="Ellipse_63" data-name="Ellipse 63" cx="1.761" cy="1.761" r="1.761" transform="translate(1167.91 403.384)" fill="#fff"/>
                    <circle id="Ellipse_64" data-name="Ellipse 64" cx="1.761" cy="1.761" r="1.761" transform="translate(1178.045 403.384)" fill="#fff"/>
                  </g>
                  <g id="Group_29" data-name="Group 29">
                    <circle id="Ellipse_65" data-name="Ellipse 65" cx="1.761" cy="1.761" r="1.761" transform="translate(1117.233 414.897)" fill="#fff"/>
                    <path id="Path_59" data-name="Path 59" d="M1130.89,416.658a1.76,1.76,0,1,1-1.761-1.761A1.76,1.76,0,0,1,1130.89,416.658Z" fill="#fff"/>
                    <path id="Path_60" data-name="Path 60" d="M1141.025,416.658a1.76,1.76,0,1,1-1.761-1.761A1.76,1.76,0,0,1,1141.025,416.658Z" fill="#fff"/>
                    <circle id="Ellipse_66" data-name="Ellipse 66" cx="1.761" cy="1.761" r="1.761" transform="translate(1147.639 414.897)" fill="#fff"/>
                    <circle id="Ellipse_67" data-name="Ellipse 67" cx="1.761" cy="1.761" r="1.761" transform="translate(1157.774 414.897)" fill="#fff"/>
                    <circle id="Ellipse_68" data-name="Ellipse 68" cx="1.761" cy="1.761" r="1.761" transform="translate(1167.91 414.897)" fill="#fff"/>
                    <circle id="Ellipse_69" data-name="Ellipse 69" cx="1.761" cy="1.761" r="1.761" transform="translate(1178.045 414.897)" fill="#fff"/>
                  </g>
                  <g id="Group_30" data-name="Group 30">
                    <circle id="Ellipse_70" data-name="Ellipse 70" cx="1.761" cy="1.761" r="1.761" transform="translate(1117.233 426.411)" fill="#fff"/>
                    <path id="Path_61" data-name="Path 61" d="M1130.89,428.172a1.76,1.76,0,1,1-1.761-1.761A1.76,1.76,0,0,1,1130.89,428.172Z" fill="#fff"/>
                    <path id="Path_62" data-name="Path 62" d="M1141.025,428.172a1.76,1.76,0,1,1-1.761-1.761A1.76,1.76,0,0,1,1141.025,428.172Z" fill="#fff"/>
                    <circle id="Ellipse_71" data-name="Ellipse 71" cx="1.761" cy="1.761" r="1.761" transform="translate(1147.639 426.411)" fill="#fff"/>
                    <circle id="Ellipse_72" data-name="Ellipse 72" cx="1.761" cy="1.761" r="1.761" transform="translate(1157.774 426.411)" fill="#fff"/>
                    <circle id="Ellipse_73" data-name="Ellipse 73" cx="1.761" cy="1.761" r="1.761" transform="translate(1167.91 426.411)" fill="#fff"/>
                    <circle id="Ellipse_74" data-name="Ellipse 74" cx="1.761" cy="1.761" r="1.761" transform="translate(1178.045 426.411)" fill="#fff"/>
                  </g>
                  <g id="Group_31" data-name="Group 31">
                    <circle id="Ellipse_75" data-name="Ellipse 75" cx="1.761" cy="1.761" r="1.761" transform="translate(1117.233 437.924)" fill="#fff"/>
                    <path id="Path_63" data-name="Path 63" d="M1130.89,439.685a1.76,1.76,0,1,1-1.761-1.761A1.761,1.761,0,0,1,1130.89,439.685Z" fill="#fff"/>
                    <path id="Path_64" data-name="Path 64" d="M1141.025,439.685a1.76,1.76,0,1,1-1.761-1.761A1.761,1.761,0,0,1,1141.025,439.685Z" fill="#fff"/>
                    <circle id="Ellipse_76" data-name="Ellipse 76" cx="1.761" cy="1.761" r="1.761" transform="translate(1147.639 437.924)" fill="#fff"/>
                    <circle id="Ellipse_77" data-name="Ellipse 77" cx="1.761" cy="1.761" r="1.761" transform="translate(1157.774 437.924)" fill="#fff"/>
                    <circle id="Ellipse_78" data-name="Ellipse 78" cx="1.761" cy="1.761" r="1.761" transform="translate(1167.91 437.924)" fill="#fff"/>
                    <circle id="Ellipse_79" data-name="Ellipse 79" cx="1.761" cy="1.761" r="1.761" transform="translate(1178.045 437.924)" fill="#fff"/>
                  </g>
                  <g id="Group_32" data-name="Group 32">
                    <path id="Path_65" data-name="Path 65" d="M1120.755,451.2a1.761,1.761,0,1,1-1.761-1.76A1.761,1.761,0,0,1,1120.755,451.2Z" fill="#fff"/>
                    <path id="Path_66" data-name="Path 66" d="M1130.89,451.2a1.76,1.76,0,1,1-1.761-1.76A1.76,1.76,0,0,1,1130.89,451.2Z" fill="#fff"/>
                    <path id="Path_67" data-name="Path 67" d="M1141.025,451.2a1.76,1.76,0,1,1-1.761-1.76A1.76,1.76,0,0,1,1141.025,451.2Z" fill="#fff"/>
                    <path id="Path_68" data-name="Path 68" d="M1151.161,451.2a1.761,1.761,0,1,1-1.761-1.76A1.761,1.761,0,0,1,1151.161,451.2Z" fill="#fff"/>
                    <path id="Path_69" data-name="Path 69" d="M1161.3,451.2a1.761,1.761,0,1,1-1.761-1.76A1.76,1.76,0,0,1,1161.3,451.2Z" fill="#fff"/>
                    <path id="Path_70" data-name="Path 70" d="M1171.431,451.2a1.76,1.76,0,1,1-1.761-1.76A1.761,1.761,0,0,1,1171.431,451.2Z" fill="#fff"/>
                    <path id="Path_71" data-name="Path 71" d="M1181.567,451.2a1.761,1.761,0,1,1-1.761-1.76A1.761,1.761,0,0,1,1181.567,451.2Z" fill="#fff"/>
                  </g>
                  <g id="Group_33" data-name="Group 33">
                    <circle id="Ellipse_80" data-name="Ellipse 80" cx="1.761" cy="1.761" r="1.761" transform="translate(1117.233 460.951)" fill="#fff"/>
                    <path id="Path_72" data-name="Path 72" d="M1130.89,462.712a1.76,1.76,0,1,1-1.761-1.761A1.76,1.76,0,0,1,1130.89,462.712Z" fill="#fff"/>
                    <path id="Path_73" data-name="Path 73" d="M1141.025,462.712a1.76,1.76,0,1,1-1.761-1.761A1.76,1.76,0,0,1,1141.025,462.712Z" fill="#fff"/>
                    <circle id="Ellipse_81" data-name="Ellipse 81" cx="1.761" cy="1.761" r="1.761" transform="translate(1147.639 460.951)" fill="#fff"/>
                    <circle id="Ellipse_82" data-name="Ellipse 82" cx="1.761" cy="1.761" r="1.761" transform="translate(1157.774 460.951)" fill="#fff"/>
                    <circle id="Ellipse_83" data-name="Ellipse 83" cx="1.761" cy="1.761" r="1.761" transform="translate(1167.91 460.951)" fill="#fff"/>
                    <circle id="Ellipse_84" data-name="Ellipse 84" cx="1.761" cy="1.761" r="1.761" transform="translate(1178.045 460.951)" fill="#fff"/>
                  </g>
                </g>
              </g>
            </g>
          </g>
        </g>
      </g>
    </g>
  </g>
</svg>
